<?xml version="1.0" standalone="no"?>
<!DOCTYPE svg PUBLIC "-//W3C//DTD SVG 20010904//EN"
 "http://www.w3.org/TR/2001/REC-SVG-20010904/DTD/svg10.dtd">
<svg version="1.0" xmlns="http://www.w3.org/2000/svg"
 width="512.000000pt" height="512.000000pt" viewBox="0 0 512.000000 512.000000"
 preserveAspectRatio="xMidYMid meet">
<metadata>
Created by potrace 1.14, written by Peter Selinger 2001-2017
</metadata>
<g transform="translate(0.000000,512.000000) scale(0.100000,-0.100000)"
fill="#000000" stroke="none">
<path d="M3337 4114 c-1 -1 -29 -5 -62 -8 -33 -3 -71 -8 -85 -11 -14 -3 -36
-8 -50 -10 -25 -3 -224 -52 -248 -60 -7 -2 -16 -5 -20 -6 -53 -11 -417 -152
-439 -171 -7 -6 -13 -7 -13 -4 0 12 -304 -146 -410 -213 -14 -8 -28 -14 -32
-13 -5 1 -8 -3 -8 -8 0 -6 -6 -10 -14 -10 -8 0 -16 -3 -18 -8 -1 -4 -28 -23
-58 -42 -30 -19 -59 -38 -65 -42 -9 -7 -72 -54 -100 -75 -48 -35 -152 -129
-209 -187 -63 -66 -156 -184 -156 -201 0 -4 -8 -19 -18 -33 -28 -41 -51 -140
-49 -208 6 -119 38 -163 334 -441 111 -106 171 -184 219 -288 24 -54 64 -178
62 -194 0 -3 1 -8 2 -11 15 -35 15 -376 -1 -397 -2 -4 -4 -12 -14 -68 -4 -27
-9 -54 -11 -60 -1 -5 -5 -21 -8 -35 -3 -14 -7 -34 -10 -45 -35 -145 -44 -227
-28 -251 4 -7 23 -11 43 -9 94 5 382 262 679 604 30 35 60 69 65 75 12 13 102
120 126 151 97 120 232 292 274 351 11 15 34 46 50 68 158 213 385 563 484
746 66 121 181 359 181 373 0 3 8 22 17 43 9 22 17 41 18 44 1 3 9 32 19 65
10 33 20 67 21 75 2 8 4 15 5 15 5 0 22 120 24 170 5 86 -36 205 -83 243 -32
26 -108 60 -160 72 -46 11 -246 22 -254 14z"/>
</g>
</svg>
